<svg width="30" height="30" viewBox="0 0 30 30" fill="none" xmlns="http://www.w3.org/2000/svg">
<circle cx="15" cy="15" r="15" fill="#FB00B5"/>
<path d="M5.5625 20V11.2727H9.32955C9.97727 11.2727 10.544 11.4006 11.0298 11.6562C11.5156 11.9119 11.8935 12.2713 12.1634 12.7344C12.4332 13.1974 12.5682 13.7386 12.5682 14.358C12.5682 14.983 12.429 15.5241 12.1506 15.9815C11.875 16.4389 11.4872 16.7912 10.9872 17.0384C10.4901 17.2855 9.90909 17.4091 9.24432 17.4091H6.99432V15.5682H8.76705C9.04545 15.5682 9.28267 15.5199 9.47869 15.4233C9.67756 15.3239 9.82955 15.1832 9.93466 15.0014C10.0426 14.8196 10.0966 14.6051 10.0966 14.358C10.0966 14.108 10.0426 13.8949 9.93466 13.7188C9.82955 13.5398 9.67756 13.4034 9.47869 13.3097C9.28267 13.2131 9.04545 13.1648 8.76705 13.1648H7.93182V20H5.5625ZM13.4375 11.2727H16.3864L18.4148 16.2159H18.517L20.5455 11.2727H23.4943V20H21.1761V14.9545H21.108L19.1648 19.9318H17.767L15.8239 14.9205H15.7557V20H13.4375V11.2727Z" fill="white"/>
</svg>
