<svg width="18" height="17" viewBox="0 0 18 17" fill="none" xmlns="http://www.w3.org/2000/svg">
<rect width="18" height="17" fill="#F5F5F5"/>
<g id="Product Page" clip-path="url(#clip0_0_1)">
<rect width="1920" height="4002" transform="translate(-1001 -1002)" fill="white"/>
<g id="Product Detail">
<g id="Details">
<g id="Info">
<g id="Item">
<g id="SVG" clip-path="url(#clip1_0_1)">
<path id="Vector" d="M16.9219 6.26875L15.3406 1.525C15.1375 0.9125 14.5656 0.5 13.9187 0.5H4.08125C3.43437 0.5 2.8625 0.9125 2.65937 1.525L1.07812 6.26875C1.02812 6.42188 1 6.58125 1 6.74375V15C1 15.8281 1.67188 16.5 2.5 16.5H15.5C16.3281 16.5 17 15.8281 17 15V6.74375C17 6.58125 16.975 6.42188 16.9219 6.26875ZM2 6.74375C2 6.69063 2.00937 6.6375 2.025 6.58437L3.60625 1.84063C3.675 1.6375 3.86562 1.5 4.08125 1.5H8.5V6.75H2V6.74375ZM16 15C16 15.275 15.775 15.5 15.5 15.5H2.5C2.225 15.5 2 15.275 2 15V7.75H16V15ZM16 6.75H9.5V1.5H13.9187C14.1344 1.5 14.325 1.6375 14.3938 1.84063L15.975 6.58437C15.9906 6.63438 16 6.6875 16 6.74375V6.75Z" fill="black" stroke="black" stroke-width="0.03125"/>
</g>
</g>
</g>
</g>
</g>
</g>
<defs>
<clipPath id="clip0_0_1">
<rect width="1920" height="4002" fill="white" transform="translate(-1001 -1002)"/>
</clipPath>
<clipPath id="clip1_0_1">
<rect width="20" height="16" fill="white" transform="translate(-1 0.5)"/>
</clipPath>
</defs>
</svg>
